<?xml version="1.0" standalone="no"?>
<!DOCTYPE svg PUBLIC "-//W3C//DTD SVG 20010904//EN"
 "http://www.w3.org/TR/2001/REC-SVG-20010904/DTD/svg10.dtd">
<svg version="1.0" xmlns="http://www.w3.org/2000/svg"
 width="900.000000pt" height="800.000000pt" viewBox="0 0 900.000000 800.000000"
 preserveAspectRatio="xMidYMid meet">

<g transform="translate(0.000000,800.000000) scale(0.100000,-0.100000)"
fill="#000000" stroke="none">
<path d="M4218 7074 c-141 -45 -280 -158 -364 -295 -101 -167 -139 -390 -94
-563 49 -191 149 -355 350 -570 243 -261 517 -481 839 -676 l119 -72 128 80
c353 219 626 442 854 696 177 198 277 363 320 532 65 254 -29 555 -230 737
-70 63 -196 129 -281 147 -81 18 -258 8 -339 -18 -211 -69 -383 -255 -439
-474 -11 -40 -20 -63 -20 -51 -1 12 -12 58 -26 102 -66 207 -254 381 -470 436
-95 24 -254 19 -347 -11z"/>
<path d="M2610 5300 c-247 -14 -377 -42 -530 -110 -124 -56 -175 -70 -297 -80
-124 -10 -181 -34 -230 -98 -70 -92 -88 -243 -76 -657 l8 -280 37 -78 c62
-130 165 -219 292 -253 28 -8 100 -14 160 -14 76 0 145 -7 230 -25 394 -80
1133 -392 1662 -701 209 -122 245 -135 394 -141 299 -13 797 115 1405 359 353
143 394 166 661 379 349 280 634 560 878 864 212 265 279 365 307 457 19 62
20 76 10 123 -24 104 -133 189 -281 215 -127 23 -275 -11 -463 -107 -136 -70
-273 -161 -530 -356 -248 -188 -368 -269 -461 -312 l-71 -34 -93 24 c-182 48
-303 59 -627 60 -165 0 -356 -3 -425 -7 l-125 -8 -65 103 c-83 130 -293 344
-421 430 -161 107 -351 186 -544 227 -85 18 -143 21 -385 25 -157 2 -346 0
-420 -5z m743 -175 c397 -69 754 -332 957 -703 l45 -83 40 6 c266 35 755 40
970 11 315 -43 492 -121 546 -241 24 -52 24 -76 -2 -109 -50 -63 -196 -106
-634 -186 -388 -71 -637 -125 -828 -179 l-139 -40 -56 36 c-78 50 -370 191
-532 256 -183 74 -178 73 -189 45 -5 -13 -18 -46 -30 -75 l-20 -51 137 -55
c287 -115 534 -240 621 -313 l32 -26 137 40 c266 79 436 117 878 197 342 62
470 92 586 136 90 35 171 102 199 164 23 49 24 137 4 196 -22 61 -80 144 -127
178 l-39 29 76 46 c41 26 193 136 337 243 505 377 667 462 860 451 63 -4 86
-10 125 -34 100 -62 77 -110 -249 -516 -227 -282 -504 -554 -833 -817 -253
-202 -300 -229 -647 -367 -486 -194 -955 -323 -1230 -341 -142 -9 -201 6 -328
82 -583 348 -1390 687 -1832 770 -48 9 -143 17 -210 19 -110 2 -129 6 -174 29
-59 30 -108 82 -138 146 -20 44 -21 61 -21 401 0 323 2 359 19 404 23 59 56
76 149 76 80 0 196 29 301 76 130 57 182 73 294 89 151 21 160 21 528 23 255
2 351 -1 417 -13z"/>
<path d="M3316 2180 c-55 -21 -100 -60 -123 -105 -39 -74 -43 -119 -43 -526 0
-434 3 -461 61 -545 79 -116 307 -139 422 -43 52 43 85 114 98 208 7 49 9 219
7 443 -4 346 -5 366 -26 418 -26 65 -79 121 -142 149 -61 28 -185 28 -254 1z
m205 -126 c18 -9 38 -32 50 -57 17 -39 19 -71 19 -445 0 -435 -1 -442 -54
-491 -19 -18 -40 -25 -78 -28 -72 -5 -116 18 -145 77 -23 44 -23 50 -23 435 0
234 4 405 10 427 6 20 26 50 46 67 30 27 43 31 90 31 30 0 69 -7 85 -16z"/>
<path d="M2440 1549 l0 -641 193 4 c212 5 244 12 305 71 87 83 94 137 90 613
-5 431 -7 443 -84 520 -63 63 -110 74 -326 74 l-178 0 0 -641z m370 493 c22
-10 43 -32 55 -57 19 -38 20 -60 20 -435 0 -364 -1 -398 -18 -432 -29 -57 -82
-78 -195 -78 l-92 0 0 510 0 510 98 0 c72 0 106 -4 132 -18z"/>
<path d="M3870 1550 l0 -641 63 3 62 3 0 507 c0 279 3 504 6 500 5 -6 154
-472 301 -942 l22 -70 73 0 73 0 0 640 0 640 -60 0 -60 0 -2 -457 -3 -458 -22
65 c-25 76 -102 313 -202 628 l-72 222 -89 0 -90 0 0 -640z"/>
<path d="M4757 1833 c-112 -593 -166 -877 -172 -901 -5 -22 -4 -23 61 -20 l67
3 25 128 24 127 162 0 162 0 25 -127 24 -128 68 -3 c64 -3 67 -2 67 20 0 13
-54 300 -118 638 l-118 615 -105 3 -104 3 -68 -358z m239 -181 c35 -183 64
-339 64 -347 0 -13 -24 -15 -141 -15 l-141 0 5 23 c3 12 33 166 66 342 34 176
64 331 68 345 5 22 7 23 10 5 2 -11 33 -170 69 -353z"/>
<path d="M5340 2125 l0 -65 115 0 115 0 2 -572 3 -573 70 0 70 0 3 573 2 572
115 0 115 0 0 65 0 65 -305 0 -305 0 0 -65z"/>
<path d="M6050 1550 l0 -640 265 0 265 0 0 65 0 65 -195 0 -195 0 2 228 3 227
158 3 157 3 0 64 0 65 -160 0 -160 0 0 215 0 215 195 0 195 0 0 65 0 65 -265
0 -265 0 0 -640z"/>
</g>
</svg>
